<svg width="32" height="32" viewBox="0 0 32 32" fill="none" xmlns="http://www.w3.org/2000/svg">
<path fill-rule="evenodd" clip-rule="evenodd" d="M11.6665 2.66675C11.6665 2.11446 11.2188 1.66675 10.6665 1.66675C10.1142 1.66675 9.6665 2.11446 9.6665 2.66675V3.7071C7.6187 3.87757 5.9949 4.58724 4.85054 5.81963C3.53818 7.23294 3 9.18012 3 11.3334V22.6667C3 24.82 3.53818 26.7672 4.85054 28.1805C6.17536 29.6073 8.14273 30.3334 10.6667 30.3334H21.3333C23.8573 30.3334 25.8246 29.6073 27.1495 28.1805C28.4618 26.7672 29 24.82 29 22.6667V11.3334C29 9.18012 28.4618 7.23294 27.1495 5.81963C26.0051 4.58724 24.3813 3.87757 22.3335 3.7071V2.66675C22.3335 2.11446 21.8858 1.66675 21.3335 1.66675C20.7812 1.66675 20.3335 2.11446 20.3335 2.66675V3.66675H11.6665V2.66675ZM9.6665 5.71514V6.66675C9.6665 7.21903 10.1142 7.66675 10.6665 7.66675C11.2188 7.66675 11.6665 7.21903 11.6665 6.66675V5.66675H20.3335V6.66675C20.3335 7.21903 20.7812 7.66675 21.3335 7.66675C21.8858 7.66675 22.3335 7.21903 22.3335 6.66675V5.71514C23.9134 5.87569 24.9812 6.42381 25.6839 7.18053C26.5049 8.06474 26.9635 9.37951 26.9979 11.1199H5.00209C5.03654 9.37951 5.49507 8.06474 6.31613 7.18053C7.0188 6.42381 8.08662 5.87569 9.6665 5.71514ZM5 13.1199V22.6667C5 24.5135 5.46182 25.8996 6.31613 26.8196C7.15797 27.7262 8.52393 28.3334 10.6667 28.3334H21.3333C23.4761 28.3334 24.842 27.7262 25.6839 26.8196C26.5382 25.8996 27 24.5135 27 22.6667V13.1199H5ZM19.5928 18.2667C19.5928 17.5303 20.1897 16.9333 20.9261 16.9333H20.9381C21.6745 16.9333 22.2714 17.5303 22.2714 18.2667C22.2714 19.0031 21.6745 19.6 20.9381 19.6H20.9261C20.1897 19.6 19.5928 19.0031 19.5928 18.2667ZM20.9261 20.9333C20.1897 20.9333 19.5928 21.5303 19.5928 22.2667C19.5928 23.0031 20.1897 23.6 20.9261 23.6H20.9381C21.6745 23.6 22.2714 23.0031 22.2714 22.2667C22.2714 21.5303 21.6745 20.9333 20.9381 20.9333H20.9261ZM14.6606 18.2667C14.6606 17.5303 15.2576 16.9333 15.994 16.9333H16.006C16.7423 16.9333 17.3393 17.5303 17.3393 18.2667C17.3393 19.0031 16.7423 19.6 16.006 19.6H15.994C15.2576 19.6 14.6606 19.0031 14.6606 18.2667ZM15.994 20.9333C15.2576 20.9333 14.6606 21.5303 14.6606 22.2667C14.6606 23.0031 15.2576 23.6 15.994 23.6H16.006C16.7423 23.6 17.3393 23.0031 17.3393 22.2667C17.3393 21.5303 16.7423 20.9333 16.006 20.9333H15.994ZM9.72559 18.2667C9.72559 17.5303 10.3225 16.9333 11.0589 16.9333H11.0709C11.8073 16.9333 12.4042 17.5303 12.4042 18.2667C12.4042 19.0031 11.8073 19.6 11.0709 19.6H11.0589C10.3225 19.6 9.72559 19.0031 9.72559 18.2667ZM11.0589 20.9333C10.3225 20.9333 9.72559 21.5303 9.72559 22.2667C9.72559 23.0031 10.3225 23.6 11.0589 23.6H11.0709C11.8073 23.6 12.4042 23.0031 12.4042 22.2667C12.4042 21.5303 11.8073 20.9333 11.0709 20.9333H11.0589Z" fill="#818181"/>
</svg>
